<?xml version="1.0" encoding="UTF-8"?>
<svg id="Layer_1" data-name="Layer 1" xmlns="http://www.w3.org/2000/svg" viewBox="0 0 640 512">
  <defs>
    <style>
      .cls-1 {
        fill: #15f5ba;
        stroke-width: 0px;
      }
    </style>
  </defs>
  <path class="cls-1" d="M416,31.94c0-10.19-7.9-31.94-31.9-31.94-13.98,0-26.87,9.07-30.89,23.18l-128,448c-.84,2.93-1.24,5.89-1.24,8.8-.87,10.32,8.03,32.02,32.03,32.02,13.92,0,26.73-9.16,30.75-23.22L414.75,40.78c.85-2.97,1.25-5.93,1.25-8.84ZM176,143.1c0-18.28-14.95-32-32-32-8.19,0-16.38,3.12-22.62,9.38L9.38,232.48c-6.25,7.12-9.38,15.32-9.38,22.62s3.12,17.3,9.38,23.5l112,112c6.22,6.3,14.43,8.5,22.62,8.5,17.05,0,32-13.73,32-32,0-8.19-3.12-16.38-9.38-22.63l-89.38-89.37,89.38-89.38c6.27-5.42,9.37-13.52,9.37-22.62ZM640,255.1c0-8.19-3.12-16.38-9.38-22.63l-112-112c-6.22-5.37-14.42-9.37-22.62-9.37-17.05,0-32,13.73-32,32,0,8.19,3.12,16.38,9.38,22.63l89.38,89.38-89.38,89.38c-6.27,7.11-9.38,15.31-9.38,22.61,0,18.28,14.95,32,32,32,8.19,0,16.38-3.12,22.62-9.38l112-112c6.28-5.32,9.38-13.52,9.38-22.62Z"/>
</svg>